<?xml version="1.0" standalone="no"?><!DOCTYPE svg PUBLIC "-//W3C//DTD SVG 1.1//EN" "http://www.w3.org/Graphics/SVG/1.1/DTD/svg11.dtd"><svg t="1706363879137" class="icon" viewBox="0 0 1024 1024" version="1.1" xmlns="http://www.w3.org/2000/svg" p-id="43590" width="128" height="128" xmlns:xlink="http://www.w3.org/1999/xlink"><path d="M0 0h1024v1024H0z" fill="#FFFFFF" fill-opacity="0" p-id="43591"></path><path d="M691.593846 691.593846m-297.747692 0a297.747692 297.747692 0 1 0 595.495384 0 297.747692 297.747692 0 1 0-595.495384 0Z" fill="#00C5FF" fill-opacity=".1" p-id="43592"></path><path d="M472.615385 905.846154A354.461538 354.461538 0 1 0 472.615385 196.923077a354.461538 354.461538 0 0 0 0 708.923077z m0-78.769231A275.692308 275.692308 0 1 1 472.615385 275.692308a275.692308 275.692308 0 0 1 0 551.384615z" fill="#3555DA" p-id="43593"></path><path d="M630.153846 669.538462m78.769231 0l0 0q78.769231 0 78.769231 78.76923l0 0q0 78.769231-78.769231 78.769231l0 0q-78.769231 0-78.769231-78.769231l0 0q0-78.769231 78.769231-78.76923Z" fill="#3555DA" p-id="43594"></path><path d="M157.538462 669.538462m78.76923 0l0 0q78.769231 0 78.769231 78.76923l0 0q0 78.769231-78.769231 78.769231l0 0q-78.769231 0-78.76923-78.769231l0 0q0-78.769231 78.76923-78.76923Z" fill="#3555DA" p-id="43595"></path><path d="M393.846154 157.538462m78.769231 0l0 0q78.769231 0 78.76923 78.76923l0 0q0 78.769231-78.76923 78.769231l0 0q-78.769231 0-78.769231-78.769231l0 0q0-78.769231 78.769231-78.76923Z" fill="#3555DA" p-id="43596"></path></svg>