<svg t="1707305555345" class="icon" viewBox="0 0 1024 1024" version="1.1" xmlns="http://www.w3.org/2000/svg" p-id="5687" width="64" height="64"><path d="M15.349532 518.578249a497.978934 497.978934 0 1 0 995.949353 0 497.978934 497.978934 0 0 0-995.949353 0z" fill="#F2F5F9" p-id="5688"></path><path d="M14.983352 565.261911C-24.845084 332.448223 159.939445 81.010461 409.537792 26.126075a455.578724 455.578724 0 0 1 226.435348 4.283451c57.839371 16.90388 56.860053 7.102184 21.936723 55.999957a229.747998 229.747998 0 0 1-22.916041 26.952534c-35.783427 38.108243-72.665394 50.115533-98.025471-13.233566 0-16.299257-24.508497-26.952534-33.083917-24.508497-8.575419 2.452553 1.839415 14.58758 0 39.947657-2.818733 45.338165-76.088749-31.49146-111.505996-19.96957-133.314982 41.659335-232.813689 123.394065-284.393941 255.968172-11.394152 29.038907-21.817501 57.711634 18.871032 74.862472 31.244501 13.233566 2.937954 62.131339 24.499981 79.895316l26.833312-21.076626c14.706801-13.846705 30.878322 6.497562 42.153252 14.706801 24.508497 17.644755 42.519432 16.418479 67.51333-5.637465 96.433016-85.771223 272.395167-29.779782 308.663995 94.840559-4.53041 80.985339-64.694597 154.025429-155.370926 183.796695-115.423269 36.762745-220.55944 15.558382-312.700488-63.229878A446.509388 446.509388 0 0 1 14.983352 565.261911z" fill="#408BCA" p-id="5689"></path><path d="M578.627686 594.428556C546.403866 497.26318 395.92953 439.423809 309.068283 490.143965c-3.431871 1.958636-6.003645 5.637465-9.682474 6.855225-49.868575 17.031617 10.167875 58.818689-31.12528 48.02916-33.569317-8.813862-73.516975-26.211659-89.935454-59.780975 95.453698-79.043735 206.099598-82.714048 321.275908-64.950072 10.661792 1.711678 25.240856 11.394152 31.372238-0.979318 3.065691-6.003645-8.941599-19.364949-14.2214-29.285865 26.841828-18.75181 55.148376-7.596101 79.895316 1.107055C723.830737 436.238897 816.218743 515.137863 846.603148 653.732646c5.339412 33.024305 12.416049 65.742042 21.204363 98.016956-1.839415 94.602117-49.016994 165.666539-127.805254 209.412247-154.51083 85.771223-312.08735 82.952491-467.211318-3.670313 73.516975-22.549861 48.02916-10.304128 72.903837-9.197074 110.27972 4.658147 204.379404-31.849124 275.6993-117.748084 44.358847-53.428183 42.76639-79.282177-2.571774-131.484083-25.853995-30.503626-22.422124-71.67756-40.194616-104.633739z" fill="#202A71" p-id="5690"></path><path d="M582.791916 592.095224c26.467133 1.720193 17.644755 27.693409 27.693409 39.453741 17.772492 20.591225-0.73236 70.212841 39.947658 70.212841 9.554737 0 62.369782-88.956136 62.369782-47.909939a286.727273 286.727273 0 0 1-148.141005 252.297859c-80.389232 44.725026-162.967027 75.841791-257.322186 48.148381-9.06082-2.690995-17.883198 4.658147-27.81263 5.024327-156.844161-83.071712-245.681075-217.740708-264.543592-394.060523 35.28951-1.473235 35.408732 32.470778 49.008478 51.222589 110.27972 158.30888 305.232124 204.992542 442.345157 103.535199 42.638653-31.610681 76.829624-69.846661 76.454929-127.924475z" fill="#0E1940" p-id="5691"></path><path d="M155.647477 381.950617a72.537657 72.537657 0 0 1-65.920874 47.671496h-1.226276c-15.439161 0.851581-12.254248-26.467133-9.801696-41.906293 25.121635-152.432972 228.649458-321.769825 384.505786-324.469336a31.49146 31.49146 0 0 1 20.948889 7.229921 55.50604 55.50604 0 0 1-9.06082 91.655647 711.419159 711.419159 0 0 1-71.072938 32.22382c-39.581478 15.924562-70.451284 32.956179-62.122823 85.771223 5.390507 34.190971-87.610638 80.261495-111.752955 53.794362-27.812631-30.392921 13.846705-75.237168-49.749353 7.229922a161.127613 161.127613 0 0 0-24.74694 40.799238z" fill="#72A0D5" p-id="5692"></path><path d="M857.758857 293.60762c-69.105786-43.86493-141.77118-77.561984-225.464546-80.389232-1.345498-5.875908-2.324816-13.105829 1.473235-16.90388C676.780895 154.902131 719.538769 100.375409 731.060658 63.246484c4.411189 10.414834 15.558382 12.986608 24.508497 17.397797a387.571477 387.571477 0 0 1 44.231109 24.508497c160.395253 111.386775 247.758933 325.814834 197.524179 515.248994a432.909641 432.909641 0 0 0-140.297945-254.503454c12.245733-22.294387 36.75423-1.345498 52.201906-14.085147-9.444032-26.714091-37.503621-36.277344-51.469547-58.205551z" fill="#428CCB" p-id="5693"></path><path d="M868.173691 753.716754A104.761476 104.761476 0 0 1 851.014337 714.876151c-24.499981-196.050943-144.342954-294.076415-329.365926-327.160331-8.447682-5.024327-17.517018-9.316295-25.360078-15.072981a62.489003 62.489003 0 0 1-10.661792-13.599746c205.367238-23.035262 408.034965 142.869719 382.54715 394.673661z" fill="#1E2852" p-id="5694"></path><path d="M735.34411 52.950872a282.810001 282.810001 0 0 1-103.041283 160.267516c-29.166644 16.546216-53.675141 40.807754-94.602117 42.408726a352.767367 352.767367 0 0 1 14.826023-49.016994 162.226152 162.226152 0 0 0 62.863698-25.368593 462.195507 462.195507 0 0 0 79.648357-71.796782c8.090018-9.197073-27.693409-2.94647-27.693409-2.94647s35.170289-40.680017 39.939142-49.987796A114.452466 114.452466 0 0 0 721.131225 2.102979c24.508497 8.328461 19.364949 19.237211 18.871032 27.446451a158.189659 158.189659 0 0 1-4.658147 23.401442zM933.975343 364.672042c-24.508497 26.100953-50.97563-5.509728-76.344223 1.226276-15.924562-8.16666-31.815061-16.776143-47.66298-25.853994-2.324816-12.254248 4.777369-17.150838 15.686119-18.624073 44.111888-7.229921 83.812587-2.077857 108.321084 43.260307z" fill="#0E1940" p-id="5695"></path><path d="M823.695623 324.979859l-14.58758 15.072981-113.950034-40.322354c57.711634-16.5377 91.655647 8.090018 128.043697 15.31994 3.798051 1.958636 5.152064 4.172746 4.045009 6.369825-1.107055 2.21411-2.086373 3.559608-3.551092 3.559608z" fill="#A7AAB8" p-id="5696"></path><path d="M823.695623 324.979859v-9.929433c30.750585 4.291967 53.419667 10.414834 34.310193-21.442806a235.751643 235.751643 0 0 1 49.008478 32.717736 57.711634 57.711634 0 0 1 26.961049 38.346686c-32.956179-24.499981-67.14715-44.111888-110.27972-39.692183z" fill="#A7AAB8" p-id="5697"></path><path d="M463.570597 220.942226c12.254248-3.551092 22.302902-23.6484 35.783427-9.673958 9.307779 9.554737-2.58029 21.928207-9.197073 31.244501a98.025472 98.025472 0 0 1-65.179998 36.754229c-8.703156-33.450096 26.705575-38.099727 38.593644-58.324772z" fill="#0E1940" p-id="5698"></path><path d="M463.570597 220.942226l-38.593644 59.184869c-12.262764 3.798051-24.508497 5.271285-30.639879-7.349143a19.356433 19.356433 0 0 1 11.521889-24.508497c18.743295-10.295612 37.980506-18.377115 57.711634-27.327229z" fill="#6F9BC5" p-id="5699"></path><path d="M194.002679 394.085645c1.958636-19.603391 12.254248-29.779782 30.145962-29.166645 3.304134 0 10.048654 9.316295 9.06082 12.262765-6.736005 17.763977-22.175165 18.862516-39.206782 16.90388z" fill="#839DBA" p-id="5700"></path><path d="M679.965807 49.152821c7.357659-4.768853 14.434295-9.963496 21.195847-15.558382A212.597159 212.597159 0 0 0 720.151907 2.102979s-0.979318 24.508497-2.324815 32.470778a127.924475 127.924475 0 0 1-12.262765 25.368593" fill="#F2F5F9" p-id="5701"></path></svg>